<?xml version="1.0" standalone="no"?>
<!DOCTYPE svg PUBLIC "-//W3C//DTD SVG 20010904//EN"
 "http://www.w3.org/TR/2001/REC-SVG-20010904/DTD/svg10.dtd">
<svg version="1.0" xmlns="http://www.w3.org/2000/svg"
 width="225.000000pt" height="225.000000pt" viewBox="0 0 225.000000 225.000000"
 preserveAspectRatio="xMidYMid meet">

<g transform="translate(0.000000,225.000000) scale(0.100000,-0.100000)"
fill="#000000" stroke="none">
<path d="M847 2243 c-7 -6 -4 -46 9 -147 l5 -39 -53 7 -53 6 65 -60 c36 -32
68 -59 73 -60 4 0 7 -4 7 -9 0 -11 -63 -16 -340 -31 -351 -19 -334 -16 -346
-53 -6 -18 -57 -161 -114 -320 -56 -158 -101 -289 -99 -291 6 -6 410 12 663
29 290 20 266 21 266 -17 0 -18 5 -50 11 -71 13 -50 7 -57 -42 -46 -23 6 -44
8 -46 5 -3 -3 12 -20 33 -38 82 -70 109 -97 104 -101 -3 -2 -160 -12 -350 -21
-190 -10 -348 -21 -352 -25 -4 -3 -16 -31 -27 -61 -11 -30 -34 -93 -51 -140
-17 -47 -40 -110 -50 -140 -11 -30 -31 -86 -45 -125 -15 -38 -35 -94 -45 -122
l-19 -53 52 0 c29 0 223 9 432 20 496 25 474 24 479 19 2 -2 6 -30 8 -63 l5
-58 -51 5 -51 6 75 -69 c41 -38 80 -69 86 -70 10 0 114 123 114 136 0 3 -20 3
-44 0 l-44 -7 -7 61 c-4 34 -5 63 -3 66 7 6 228 22 413 29 94 3 180 8 191 10
24 5 37 37 179 440 37 105 70 196 73 203 4 11 -7 13 -44 11 -47 -3 -49 -2 -46
21 1 14 12 55 24 92 12 37 19 71 15 74 -7 8 -217 -85 -217 -96 0 -4 17 -11 37
-16 l38 -9 -38 -41 -37 -41 -267 -12 c-148 -6 -299 -15 -336 -19 -37 -5 -70
-5 -73 -1 -2 4 21 37 52 73 31 37 55 69 52 71 -3 3 -24 -2 -48 -10 -24 -8 -46
-13 -49 -10 -3 3 -5 40 -6 83 l0 77 115 6 c176 9 366 21 459 28 l85 6 34 95
c98 274 190 545 187 550 -2 3 -66 2 -142 -3 -76 -4 -144 -6 -150 -5 -7 2 11
29 39 62 40 45 49 62 42 74 -6 9 -15 17 -21 19 -6 2 -41 -32 -78 -77 -38 -44
-72 -80 -76 -80 -4 0 -13 16 -20 35 -17 45 -25 44 -36 -2 l-9 -38 -64 -7 c-91
-9 -453 -28 -458 -24 -2 2 22 34 53 71 31 36 55 68 53 70 -2 2 -22 -2 -45 -8
-23 -6 -45 -8 -49 -4 -6 5 -15 77 -23 180 -1 9 -55 9 -64 0z m73 -264 c0 -5
-7 -9 -15 -9 -15 0 -20 12 -9 23 8 8 24 -1 24 -14z m890 -71 c-1 -7 -7 -29
-14 -48 -7 -19 -48 -132 -91 -250 -42 -118 -78 -216 -79 -217 -1 -2 -406 -26
-816 -48 -146 -8 -350 -19 -455 -25 -104 -6 -208 -11 -230 -12 -30 -2 -40 2
-38 12 2 17 69 210 138 393 45 120 49 127 75 127 15 0 106 5 201 10 426 25
913 49 916 46 2 -2 -1 -25 -8 -50 -6 -26 -9 -49 -7 -52 7 -6 218 96 218 106 0
10 41 16 128 18 44 2 62 -2 62 -10z m-276 -16 c2 -4 -9 -15 -25 -24 -32 -19
-37 -14 -12 14 17 19 29 23 37 10z m315 -778 c-10 -23 -13 -25 -16 -11 -3 10
1 25 8 33 17 21 21 11 8 -22z m-39 -49 c0 -8 -7 -15 -15 -15 -16 0 -20 12 -8
23 11 12 23 8 23 -8z m-802 -7 c-6 -18 -28 -21 -28 -4 0 9 7 16 16 16 9 0 14
-5 12 -12z m837 -138 c-20 -54 -146 -405 -160 -447 -2 -7 -15 -13 -27 -13 -23
0 -706 -36 -1232 -65 -153 -9 -281 -14 -283 -11 -3 2 6 35 20 73 13 37 55 154
92 258 37 105 69 191 70 193 2 3 683 43 1063 63 128 6 235 9 239 5 4 -3 1 -12
-5 -18 -9 -9 -8 -16 5 -30 16 -18 18 -17 57 21 38 37 45 40 106 43 36 2 68 1
72 -2 5 -3 -3 -35 -17 -70z m-750 -760 c-3 -5 -12 -10 -20 -10 -8 0 -17 5 -20
10 -4 6 5 10 20 10 15 0 24 -4 20 -10z"/>
<path d="M875 1793 c-39 -11 -65 -36 -75 -73 -19 -72 13 -112 109 -134 36 -8
68 -21 72 -28 16 -24 9 -57 -12 -69 -22 -11 -109 -8 -141 6 -15 6 -18 2 -18
-24 0 -27 4 -31 43 -42 51 -13 127 -6 161 16 55 36 59 124 6 168 -16 14 -49
28 -77 32 -64 9 -83 21 -83 49 0 40 23 49 100 43 61 -5 70 -4 70 11 0 33 -17
44 -76 47 -32 2 -68 1 -79 -2z"/>
<path d="M541 1773 l-23 -5 7 -171 c4 -95 9 -175 12 -179 2 -5 17 -8 34 -8
l29 0 0 70 0 70 30 0 c42 0 94 23 114 51 9 13 16 42 16 64 0 49 -22 83 -66
101 -32 13 -102 16 -153 7z m140 -74 c14 -14 18 -27 13 -42 -11 -37 -25 -47
-65 -47 l-39 0 0 55 0 55 35 0 c22 0 43 -8 56 -21z"/>
<path d="M1180 1722 c-52 -23 -77 -58 -80 -112 -4 -73 0 -91 33 -127 29 -31
41 -37 88 -41 59 -4 129 17 129 40 -1 32 -14 37 -62 21 -56 -18 -97 -8 -115
28 l-13 24 95 9 c91 9 95 10 95 33 0 88 -96 158 -170 125z m88 -64 c6 -6 12
-17 12 -24 0 -10 -16 -14 -60 -14 -33 0 -60 4 -60 9 0 5 12 19 27 30 26 21 53
21 81 -1z"/>
<path d="M1137 863 c-4 -3 -7 -21 -7 -39 0 -19 -6 -34 -15 -38 -19 -7 -20 -46
-1 -46 14 0 26 -42 26 -94 0 -51 19 -105 42 -117 22 -12 91 -15 107 -5 5 3 7
15 4 26 -4 15 -14 20 -39 20 -43 0 -54 21 -54 104 l0 65 38 3 c32 3 37 6 37
28 0 23 -4 25 -40 25 -35 0 -40 3 -43 25 -6 41 -35 64 -55 43z"/>
<path d="M694 808 c3 -24 8 -105 12 -181 l6 -138 32 3 c17 2 31 5 30 8 0 3 -4
76 -8 163 -4 88 -10 165 -13 173 -3 8 -18 14 -35 14 -29 0 -29 -1 -24 -42z"/>
<path d="M945 783 c-11 -3 -26 -10 -32 -15 -9 -7 -17 -7 -26 0 -7 6 -23 8 -36
5 -22 -6 -23 -9 -17 -82 18 -208 15 -198 45 -197 l26 1 -4 96 c-3 90 -1 98 20
118 28 26 64 27 75 4 5 -10 13 -61 19 -113 9 -87 12 -95 33 -98 32 -5 35 14
24 129 -8 86 -13 104 -33 124 -26 24 -62 35 -94 28z"/>
</g>
</svg>
